<?xml version="1.0" encoding="UTF-8"?>
<svg id="Layer_1" data-name="Layer 1" xmlns="http://www.w3.org/2000/svg" viewBox="0 0 32 32">
  <defs>
    <style>
      .cls-1 {
        fill: #3c84b1;
      }

      .cls-2 {
        fill: #052a3d;
      }
    </style>
  </defs>
  <path class="cls-1" d="M24.59,0c-.98-.02-1.89.31-2.6.87-2.01,1.59-4.4,2.61-6.95,2.75l-11.13.63,11.02.41c2.53.09,5.03.91,6.98,2.53.7.58,1.6.93,2.58.93,2.3,0,4.15-1.91,4.05-4.23-.08-2.11-1.85-3.84-3.96-3.89h0Z"/>
  <path class="cls-1" d="M24.6,23.88c-.99-.03-1.91.31-2.62.88-1.99,1.58-4.37,2.57-6.9,2.72l-9.71.55,9.39.35c2.59.1,5.13.96,7.09,2.65.71.61,1.63.98,2.64.98,2.3,0,4.15-1.91,4.05-4.23-.09-2.11-1.84-3.83-3.95-3.89h0Z"/>
  <path class="cls-1" d="M28.55,15.67l-2.96-.3c-4.73-.27-7.86-2.46-11.38-5.62-1.57-1.41-3.68-2.24-5.98-2.16C3.85,7.73.21,11.3,0,15.67c-.22,4.87,3.67,8.9,8.52,8.9,2.05,0,3.93-.72,5.39-1.92,3.63-2.97,7.2-6.26,11.88-6.43l2.75-.54Z"/>
  <path class="cls-2" d="M24.37,16.07c0,2.11,1.71,3.82,3.81,3.82s3.82-1.71,3.82-3.82-1.71-3.81-3.82-3.81-3.81,1.71-3.81,3.81Z"/>
</svg>