<?xml version="1.0" encoding="UTF-8"?>
<svg id="Layer_1" data-name="Layer 1" xmlns="http://www.w3.org/2000/svg" viewBox="0 0 378 500">
  <defs>
    <style>
      .cls-1 {
        fill: #3c84b1;
      }

      .cls-2 {
        fill: #052a3d;
      }

      .cls-3 {
        fill: #fff;
      }
    </style>
  </defs>
  <path class="cls-1" d="M270.1,166.44c-4.97-.11-9.54,1.55-13.13,4.38-10.13,8-22.19,13.18-35.08,13.9l-56.16,3.17,55.64,2.05c12.78.47,25.36,4.59,35.22,12.75,3.54,2.93,8.09,4.69,13.04,4.69,11.59,0,20.95-9.64,20.46-21.34-.43-10.65-9.34-19.37-19.99-19.62h-.01Z"/>
  <path class="cls-1" d="M270.16,293.29c-5.01-.13-9.62,1.55-13.24,4.42-10.02,7.96-22.06,12.98-34.83,13.7l-48.99,2.77,47.4,1.75c13.06.48,25.89,4.82,35.78,13.36,3.58,3.09,8.24,4.96,13.34,4.96,11.59,0,20.95-9.64,20.46-21.34-.44-10.63-9.3-19.35-19.93-19.62h.01Z"/>
  <g>
    <path class="cls-2" d="M279.53,450.39c0,7.8-6.33,14.13-14.13,14.13s-14.13-6.33-14.13-14.13,6.33-14.13,14.13-14.13,14.13,6.33,14.13,14.13Z"/>
    <path class="cls-2" d="M100.71,488.7c0,5.96,4.82,10.78,10.78,10.78s10.78-4.82,10.78-10.78-4.82-10.78-10.78-10.78-10.78,4.82-10.78,10.78Z"/>
    <path class="cls-1" d="M282.91,477.92c-1.78-.01-3.46.41-4.95,1.15-7.09,3.58-14.66,6.11-22.61,6.41l-111.55,4.14,109.41,2.66c8.6.21,17.1,2.21,24.79,6.07,1.45.73,3.08,1.13,4.81,1.13,6,0,10.87-4.91,10.78-10.93-.09-5.75-4.93-10.57-10.68-10.62h-.01Z"/>
    <path class="cls-1" d="M241.5,451.42l-78.76-4.45c-9.48-.54-18.46-3.86-26.62-8.73-1.9-1.14-4.1-1.83-6.45-1.97-7.8-.42-14.66,5.89-14.88,13.7-.22,7.99,6.19,14.54,14.12,14.54,2.69,0,5.21-.76,7.34-2.07,8.77-5.36,19.01-7.85,29.29-8.23l75.96-2.81h0Z"/>
  </g>
  <g>
    <path class="cls-2" d="M196.32,395.97c9.24,0,16.73-7.49,16.73-16.73s-7.49-16.73-16.73-16.73-16.73,7.49-16.73,16.73,7.49,16.73,16.73,16.73Z"/>
    <path class="cls-2" d="M232.48,371.93c9.24,0,16.73-7.49,16.73-16.73s-7.49-16.73-16.73-16.73-16.73,7.49-16.73,16.73,7.49,16.73,16.73,16.73Z"/>
    <path class="cls-2" d="M146.87,407.78c0,8.56,6.93,15.5,15.5,15.5s15.5-6.93,15.5-15.5-6.93-15.5-15.5-15.5-15.5,6.93-15.5,15.5Z"/>
    <path class="cls-1" d="M208.79,355.67l-2.04-.11c-12.75-.73-24.63-5.88-34.77-13.64-3.02-2.32-6.87-3.63-11.02-3.41-8.52.44-15.51,7.53-15.84,16.04-.36,9.54,7.25,17.39,16.72,17.39,3.91,0,7.52-1.35,10.36-3.6,10.28-8.14,23.22-12.18,36.33-12.66h.26Z"/>
    <path class="cls-1" d="M232.81,392.32c-3.8-.21-7.33.97-10.12,3.06-9.46,7.09-20.47,11.79-32.28,12.46l-7.28.41,4.96.19c12.36.46,24.63,4.11,34.44,11.65,2.62,2.01,5.88,3.2,9.43,3.2,8.72,0,15.76-7.2,15.48-15.98-.24-7.92-6.73-14.56-14.64-14.99h0Z"/>
  </g>
  <g>
    <path class="cls-2" d="M293.6,10.79c0,5.96-4.82,10.78-10.78,10.78s-10.78-4.82-10.78-10.78S276.86,0,282.81,0s10.78,4.82,10.78,10.78Z"/>
    <path class="cls-2" d="M114.78,49.49c0,7.8,6.33,14.13,14.13,14.13s14.13-6.33,14.13-14.13-6.33-14.13-14.13-14.13-14.13,6.33-14.13,14.13Z"/>
    <path class="cls-1" d="M254.03,9.86l-115.42-2.81c-7.85-.19-15.36-2.56-22.43-5.98-1.47-.71-3.14-1.1-4.9-1.07-5.7.11-10.48,4.91-10.56,10.62-.09,6.02,4.77,10.93,10.78,10.93,1.62,0,3.15-.36,4.54-1,7.79-3.63,16.04-6.16,24.64-6.48l113.37-4.21h-.01Z"/>
    <path class="cls-1" d="M264.65,35.38c-2.35.12-4.55.82-6.45,1.96-8.02,4.78-16.89,7.97-26.22,8.31l-76.07,2.81,76.31,4.31c9.21.52,17.9,3.84,25.71,8.71,2.17,1.35,4.73,2.13,7.46,2.13,7.93,0,14.35-6.55,14.12-14.54-.22-7.8-7.08-14.11-14.88-13.7h.01Z"/>
  </g>
  <g>
    <path class="cls-2" d="M213.05,117.08c0,9.24-7.48,16.73-16.73,16.73s-16.73-7.48-16.73-16.73,7.48-16.73,16.73-16.73,16.73,7.48,16.73,16.73Z"/>
    <path class="cls-2" d="M247.44,87.18c0,8.56-6.93,15.5-15.5,15.5s-15.5-6.93-15.5-15.5,6.93-15.5,15.5-15.5,15.5,6.93,15.5,15.5Z"/>
    <path class="cls-2" d="M232.48,162.75c9.24,0,16.73-7.49,16.73-16.73s-7.49-16.73-16.73-16.73-16.73,7.49-16.73,16.73,7.49,16.73,16.73,16.73Z"/>
    <path class="cls-1" d="M208.79,146.48l-2.04-.11c-12.75-.71-24.63-5.88-34.77-13.64-3.02-2.32-6.87-3.63-11.02-3.41-8.52.44-15.51,7.53-15.84,16.04-.36,9.54,7.25,17.39,16.72,17.39,3.91,0,7.52-1.35,10.36-3.6,10.28-8.14,23.22-12.18,36.33-12.66h.26Z"/>
    <path class="cls-1" d="M213.9,86.72l-10.58-.4c-11.58-.43-22.47-4.86-31.85-11.69-2.48-1.8-5.52-2.89-8.81-2.96-8.35-.15-15.54,6.68-15.78,15.03-.25,8.77,6.78,15.96,15.48,15.96,3.62,0,6.93-1.23,9.57-3.31,9.7-7.63,21.83-11.51,34.14-12.21l7.82-.44h0Z"/>
  </g>
  <path class="cls-1" d="M290.1,247.64l-23.82-2.45c-38.06-2.14-63.28-19.84-91.67-45.22-12.68-11.34-29.62-18.04-48.16-17.43-35.3,1.16-64.58,29.96-66.21,65.09-1.81,39.26,29.59,71.63,68.57,71.63,16.48,0,31.62-5.81,43.43-15.47,29.19-23.88,57.96-50.41,95.69-51.78l22.17-4.38Z"/>
  <rect class="cls-3" x="76.08" y="246.26" width="103.49" height="8.93" rx="4.46" ry="4.46"/>
  <path class="cls-3" d="M166.78,235.57h-77.91c-2.6,0-4.71-2.11-4.71-4.71s2.11-4.71,4.71-4.71h77.91c2.6,0,4.71,2.11,4.71,4.71s-2.11,4.71-4.71,4.71Z"/>
  <path class="cls-3" d="M166.78,275.65h-77.91c-2.6,0-4.71-2.11-4.71-4.71s2.11-4.71,4.71-4.71h77.91c2.6,0,4.71,2.11,4.71,4.71s-2.11,4.71-4.71,4.71Z"/>
  <path class="cls-2" d="M268.68,250.89c0,13.57,11,24.58,24.58,24.58s24.58-11,24.58-24.58-11-24.57-24.58-24.57-24.58,11-24.58,24.57Z"/>
</svg>